<svg width="42" height="42" viewBox="0 0 42 42" fill="none" xmlns="http://www.w3.org/2000/svg">
<path d="M21 42C32.598 42 42 32.598 42 21C42 9.40202 32.598 0 21 0C9.40202 0 0 9.40202 0 21C0 32.598 9.40202 42 21 42Z" fill="white"/>
<path d="M21 41C32.0457 41 41 32.0457 41 21C41 9.9543 32.0457 1 21 1C9.9543 1 1 9.9543 1 21C1 32.0457 9.9543 41 21 41Z" stroke="#5A79FC" stroke-width="2"/>
<path d="M21 11V23" stroke="#5A79FC" stroke-width="3" stroke-linecap="round"/>
<path d="M21 31C22.1046 31 23 30.1046 23 29C23 27.8954 22.1046 27 21 27C19.8954 27 19 27.8954 19 29C19 30.1046 19.8954 31 21 31Z" fill="#5A79FC"/>
</svg>
